<?xml version="1.0" encoding="UTF-8" standalone="no"?>
<svg
   xmlns:dc="http://purl.org/dc/elements/1.1/"
   xmlns:cc="http://creativecommons.org/ns#"
   xmlns:rdf="http://www.w3.org/1999/02/22-rdf-syntax-ns#"
   xmlns:svg="http://www.w3.org/2000/svg"
   xmlns="http://www.w3.org/2000/svg"
   id="svg8"
   version="1.1"
   viewBox="0 0 210 297"
   height="297mm"
   width="210mm">
  <defs
     id="defs2" />
  <metadata
     id="metadata5">
    <rdf:RDF>
      <cc:Work
         rdf:about="">
        <dc:format>image/svg+xml</dc:format>
        <dc:type
           rdf:resource="http://purl.org/dc/dcmitype/StillImage" />
        <dc:title></dc:title>
      </cc:Work>
    </rdf:RDF>
  </metadata>
  <g
     id="layer1">
    <g
       transform="translate(264.69078,185.3695)"
       id="g24">
      <path
         id="path28"
         d="m -159.50595,35.18504 h -80.26399 v -72.982665 -72.982665 h 80.26399 80.26399 v 72.982665 72.982665 z m 46.05866,-17.361882 8.29733,-0.07945 0.0915,-7.441025 0.0915,-7.4410242 -7.37281,-7.4021288 -7.37281,-7.402132 -6.66401,-6.408176 -6.664,-6.40818 h -7.10896 -7.10897 l -0.53569,0.205568 -0.5357,0.205567 v 7.900206 7.9002056 l 13.29266,13.2250109 13.29267,13.2250075 z m -46.39733,-1.650377 2.20134,0.04461 3.89466,-0.363725 3.89467,-0.363721 3.21733,-0.656586 3.21733,-0.656587 1.69334,-0.532767 1.69333,-0.532766 1.43933,-0.523779 1.43934,-0.523778 v -0.380347 -0.380346 l -7.07797,-7.0719458 -7.07797,-7.0719491 -3.78561,0.41804 -3.78561,0.4180433 -2.42909,-0.2289522 -2.42908,-0.2289488 -2.20134,-0.4913173 -2.20133,-0.4913206 -1.86267,-0.6930475 -1.86266,-0.6930508 -2.54309,-1.3230487 -2.54309,-1.3230521 -2.72784,-2.1570019 -2.72783,-2.1570055 -2.27628,-2.843028 -2.27628,-2.843032 -1.68168,-3.386667 -1.68167,-3.386667 -0.89275,-3.386666 -0.89274,-3.386667 -0.007,-5.249333 -0.007,-5.249333 0.86953,-3.257594 0.86953,-3.257598 1.18506,-2.564905 1.18506,-2.564909 1.30104,-1.963416 1.30105,-1.963417 2.1982,-2.33236 2.1982,-2.332357 1.88956,-1.45399 1.88957,-1.453988 2.17757,-1.196286 2.17756,-1.196282 2.33158,-0.877025 2.33157,-0.877028 2.40976,-0.542046 2.40976,-0.542043 4.572,-0.01483 4.572,-0.01483 3.048,0.760913 3.04799,0.760916 3.72534,1.839112 3.72533,1.839116 2.4526,2.040816 2.45261,2.040812 1.78303,2.161655 1.78303,2.161655 1.27414,2.150625 1.27413,2.150624 1.05005,2.709334 1.05005,2.709333 0.6324,3.048 0.6324,3.048 0.004,3.87709 0.004,3.877089 -0.4083,2.823969 -0.40831,2.823968 8.11099,8.116269 8.11098,8.116272 0.32277,-0.107591 0.32278,-0.107591 1.25085,-2.51774 1.25086,-2.517736 1.05086,-2.984192 1.05086,-2.984195 0.74986,-3.450471 0.74986,-3.450475 0.0143,-7.281333 0.0143,-7.281333 -0.62682,-2.878667 -0.62682,-2.878666 -1.01693,-3.217334 -1.01694,-3.217333 -1.46248,-3.048 -1.46248,-3.048 -2.02534,-3.059396 -2.02534,-3.059393 -3.09467,-3.269938 -3.09466,-3.269938 -3.11909,-2.358956 -3.1191,-2.358957 -3.04401,-1.731573 -3.04401,-1.731573 -3.44745,-1.347885 -3.44745,-1.347886 -3.16053,-0.846043 -3.16054,-0.846044 -3.38667,-0.492059 -3.38667,-0.492059 -3.55599,-0.217742 -3.556,-0.217741 -4.20599,0.37486 -4.20598,0.374859 -3.41402,0.690359 -3.41401,0.690358 -3.93027,1.308333 -3.93027,1.308332 -3.02838,1.520946 -3.02838,1.520946 -3.20135,2.125918 -3.20135,2.125918 -4.08788,4.085844 -4.08788,4.085844 -2.25328,3.405591 -2.25328,3.405591 -1.33874,2.859742 -1.33874,2.859742 -0.88745,2.647439 -0.88746,2.647438 -0.73405,3.279228 -0.73405,3.279228 -4e-5,7.450667 -5e-5,7.450666 0.75228,3.450475 0.75228,3.450471 1.04078,2.984195 1.04078,2.984192 1.67708,3.386667 1.67709,3.3866664 2.27373,3.1844148 2.27373,3.1844115 2.88025,2.91635341 2.88023,2.91635339 3.048,2.2929697 3.048,2.2929731 4.74134,2.3537265 4.74133,2.3537302 3.048,1.00248 3.048,1.002481 3.556,0.704965 3.556,0.704965 3.048,0.283985 3.048,0.283983 2.20133,0.04462 z m 4.56342,-31.897397 0.34725,-0.115377 0.16933,-7.592148 0.16934,-7.592151 7.366,-0.09127 7.36599,-0.09127 v -0.259409 -0.259405 l -6.20776,-6.174919 -6.20777,-6.174923 -8.1009,0.09093 -8.1009,0.09093 -0.0913,7.593557 -0.0913,7.593557 6.51739,6.548634 6.51739,6.548635 z"
         style="fill:#fdfdfd;stroke-width:0.338667" />
      <path
         id="path26"
         d="m -113.44729,17.823158 -8.29733,0.07945 -13.29267,-13.2250075 -13.29266,-13.2250109 v -7.9002056 -7.900206 l 0.5357,-0.205567 0.53569,-0.205568 h 7.10897 7.10896 l 6.664,6.40818 6.66401,6.408176 7.37281,7.402132 7.37281,7.4021288 -0.0915,7.4410242 -0.0915,7.441025 z m -46.39733,-1.650377 -2.20133,-0.04462 -3.048,-0.283983 -3.048,-0.283985 -3.556,-0.704965 -3.556,-0.704965 -3.048,-1.002481 -3.048,-1.00248 -4.74133,-2.3537302 -4.74133,-2.3537265 -3.048,-2.2929731 -3.048,-2.2929697 -2.88024,-2.91635339 -2.88024,-2.91635341 -2.27373,-3.1844115 -2.27374,-3.1844148 -1.67708,-3.3866664 -1.67709,-3.386667 -1.04078,-2.984192 -1.04078,-2.984195 -0.75228,-3.450471 -0.75228,-3.450475 5e-5,-7.450666 5e-5,-7.450667 0.73405,-3.279228 0.73405,-3.279228 0.88745,-2.647438 0.88746,-2.647439 1.33874,-2.859742 1.33873,-2.859742 2.25328,-3.405591 2.25328,-3.405591 4.08789,-4.085844 4.08787,-4.085844 3.20135,-2.125918 3.20135,-2.125918 3.02838,-1.520946 3.02839,-1.520946 3.93027,-1.308332 3.93026,-1.308333 3.41402,-0.690358 3.41401,-0.690359 4.20599,-0.374859 4.20598,-0.37486 3.556,0.217741 3.556,0.217742 3.38667,0.492059 3.38666,0.492059 3.16054,0.846044 3.16054,0.846043 3.44745,1.347886 3.44745,1.347885 3.04401,1.731573 3.04401,1.731573 3.11909,2.358957 3.11909,2.358956 3.09467,3.269938 3.09466,3.269938 2.02534,3.059393 2.02534,3.059396 1.46249,3.048 1.46248,3.048 1.01693,3.217333 1.01693,3.217334 0.62683,2.878666 0.62681,2.878667 -0.0143,7.281333 -0.0143,7.281333 -0.74986,3.450475 -0.74986,3.450471 -1.05086,2.984195 -1.05086,2.984192 -1.25085,2.517736 -1.25086,2.51774 -0.32277,0.107591 -0.32277,0.107591 -8.11099,-8.116272 -8.11098,-8.116269 0.4083,-2.823968 0.4083,-2.823969 -0.004,-3.877089 -0.004,-3.87709 -0.6324,-3.048 -0.63239,-3.048 -1.05005,-2.709333 -1.05006,-2.709334 -1.27413,-2.150624 -1.27413,-2.150625 -1.78304,-2.161655 -1.78303,-2.161655 -2.4526,-2.040812 -2.4526,-2.040816 -3.72534,-1.839116 -3.72533,-1.839112 -3.048,-0.760916 -3.048,-0.760913 -4.572,0.01483 -4.572,0.01483 -2.40976,0.542043 -2.40975,0.542046 -2.33158,0.877028 -2.33157,0.877025 -2.17757,1.196282 -2.17756,1.196286 -1.88957,1.453988 -1.88957,1.45399 -2.1982,2.332357 -2.1982,2.33236 -1.30104,1.963417 -1.30105,1.963416 -1.18506,2.564909 -1.18506,2.564905 -0.86952,3.257598 -0.86953,3.257594 0.007,5.249333 0.007,5.249333 0.89274,3.386667 0.89274,3.386666 1.68168,3.386667 1.68167,3.386667 2.27628,2.843032 2.27628,2.843028 2.72783,2.1570055 2.72784,2.1570019 2.54309,1.3230521 2.54309,1.3230487 1.86267,0.6930508 1.86267,0.6930475 2.20133,0.4913206 2.20133,0.4913173 2.42908,0.2289488 2.42909,0.2289522 3.78562,-0.4180433 3.78561,-0.41804 7.07797,7.0719491 7.07796,7.0719458 v 0.380346 0.380347 l -1.43933,0.523778 -1.43933,0.523779 -1.69334,0.532766 -1.69333,0.532767 -3.21733,0.656587 -3.21734,0.656586 -3.89466,0.363721 -3.89467,0.363725 -2.20133,-0.04461 z m 4.56342,-31.897397 -0.34724,0.115374 -6.51739,-6.548635 -6.51739,-6.548634 0.0913,-7.593557 0.0913,-7.593557 8.1009,-0.09093 8.1009,-0.09093 6.20777,6.174923 6.20776,6.174919 v 0.259405 0.259409 l -7.36599,0.09127 -7.366,0.09127 -0.16934,7.592151 -0.16933,7.592148 z"
         style="fill:#040404;stroke-width:0.338667" />
    </g>
  </g>
</svg>
